# xmcd CD database file
#
# Track frame offsets:
#	150
#	15067
#	30160
#	46985
#	59815
#	72827
#	94845
#	109277
#	123530
#	143875
#	166055
#	178350
#	187427
#	201357
#	211735
#	227337
#	247057
#	262195
#	276955
#
# Disc length: 3854 seconds
#
# Revision: 0
# Processed by: cddbd v1.5.2PL0 Copyright (c) Steve Scherf et al.
# Submitted via: CDex 1.70beta2
#
DISCID=1e0f0c13
DTITLE=Herman, Woody - V Disc [CD2)
DYEAR=1997
DGENRE=Jazz
TTITLE0=I wonder
TTITLE1=Laura
TTITLE2=I've got the world on a string
TTITLE3=It must be jelly
TTITLE4=Lazy river
TTITLE5=Lover man
TTITLE6=Northwest passage
TTITLE7=Out of this world
TTITLE8=Red top
TTITLE9=Somebody loves me
TTITLE10=There are no wings on a foxhole
TTITLE11=There'll be some changes made
TTITLE12=Woodchoppers ball
TTITLE13=Yeah man (Amen)
TTITLE14=Jones Beachhead
TTITLE15=John Hardy's wife
TTITLE16=Someday sweetheart
TTITLE17=Nero's conception
TTITLE18=Igor
EXTD=YEAR: 1997
EXTT0=
EXTT1=
EXTT2=
EXTT3=
EXTT4=
EXTT5=
EXTT6=
EXTT7=
EXTT8=
EXTT9=
EXTT10=
EXTT11=
EXTT12=
EXTT13=
EXTT14=
EXTT15=
EXTT16=
EXTT17=
EXTT18=
PLAYORDER=
